<?xml version="1.0" standalone="no"?>
<!DOCTYPE svg PUBLIC "-//W3C//DTD SVG 20010904//EN"
 "http://www.w3.org/TR/2001/REC-SVG-20010904/DTD/svg10.dtd">
<svg version="1.0" xmlns="http://www.w3.org/2000/svg"
 width="512.000000pt" height="512.000000pt" viewBox="0 0 512.000000 512.000000"
 preserveAspectRatio="xMidYMid meet">
<metadata>
Created by potrace 1.14, written by Peter Selinger 2001-2017
</metadata>
<g transform="translate(0.000000,512.000000) scale(0.100000,-0.100000)"
fill="#000000" stroke="none">
<path d="M428 5091 l-33 -29 -1 -284 c-1 -224 1 -289 12 -310 35 -68 139 -69
175 0 10 17 14 81 14 236 l0 211 209 2 c123 1 221 7 236 13 62 26 75 109 25
159 l-25 26 -290 3 -289 3 -33 -30z"/>
<path d="M2265 5104 c-163 -29 -305 -86 -448 -181 -318 -211 -514 -567 -520
-939 -1 -94 8 -205 22 -266 l8 -36 -58 -22 c-150 -54 -236 -231 -183 -376 11
-27 83 -172 162 -322 151 -285 185 -332 254 -347 19 -5 33 -16 40 -33 82 -202
257 -495 365 -610 l59 -64 -2 -71 c-1 -40 -2 -75 -3 -79 0 -4 -20 -12 -43 -19
-207 -55 -508 -178 -713 -292 -353 -196 -578 -453 -693 -792 -46 -134 -64
-257 -66 -437 l-1 -158 28 -27 27 -28 825 0 825 0 25 25 c53 54 29 152 -41
166 -17 3 -359 6 -760 7 l-729 2 1 35 c12 337 150 639 389 848 164 144 475
305 794 411 l144 48 27 -76 c83 -240 307 -399 561 -401 257 -1 490 174 568
426 l16 52 146 -48 c80 -27 165 -57 190 -68 24 -11 80 -36 124 -56 108 -47
275 -137 360 -194 92 -61 252 -221 310 -310 85 -132 159 -316 178 -442 14 -91
18 -129 20 -175 l2 -50 -710 -2 c-391 -1 -727 -2 -747 -3 -53 0 -99 -43 -101
-92 -1 -42 24 -85 59 -98 15 -6 343 -10 829 -10 l805 0 32 29 33 29 -1 159
c-3 392 -123 685 -396 966 -182 187 -557 391 -938 512 -63 20 -131 42 -150 49
l-34 12 -1 77 -1 77 59 62 c107 114 290 416 352 581 16 41 24 50 65 68 69 29
98 67 182 229 42 80 110 212 153 294 69 132 78 156 82 215 9 124 -58 236 -176
296 -28 14 -53 25 -56 25 -3 0 -9 0 -14 0 -5 0 2 48 14 108 32 149 39 227 38
452 0 164 -4 208 -21 278 -67 263 -265 476 -522 562 -82 27 -131 35 -245 35
-107 0 -168 -19 -249 -75 l-56 -40 -45 34 c-75 58 -145 79 -265 81 -58 1 -141
-4 -185 -11z m285 -206 c19 -8 49 -26 65 -40 97 -81 188 -81 295 -1 30 22 71
46 91 52 80 26 255 -10 366 -75 119 -69 231 -221 268 -364 25 -96 24 -420 -1
-567 l-6 -32 -51 55 c-52 57 -143 126 -212 160 -98 48 -168 156 -179 273 -7
78 -42 115 -108 113 -59 -2 -98 -53 -98 -130 0 -19 -9 -65 -20 -103 -63 -211
-273 -355 -491 -335 -90 8 -162 36 -259 103 -90 60 -147 89 -199 98 -19 3 -37
8 -41 10 -12 7 -115 7 -165 0 -92 -13 -214 -76 -274 -139 -13 -14 -27 -24 -31
-21 -10 6 9 162 31 248 42 167 147 342 274 460 84 78 246 174 348 207 140 45
327 58 397 28z m581 -886 c26 -31 120 -102 135 -102 19 0 120 -74 161 -118 50
-52 97 -145 113 -223 16 -84 62 -121 128 -104 79 20 109 18 141 -12 57 -52 54
-68 -53 -274 -53 -101 -117 -225 -143 -276 l-47 -91 -43 1 c-60 0 -82 -24
-128 -141 -89 -228 -248 -487 -364 -594 -79 -73 -198 -138 -301 -165 -87 -22
-254 -22 -340 1 -125 32 -248 104 -335 193 -95 98 -248 361 -333 572 -43 108
-70 135 -129 133 l-38 -2 -55 108 c-31 59 -95 183 -144 275 -99 190 -103 212
-44 262 29 24 37 26 78 20 94 -16 127 -12 154 18 19 21 26 39 26 70 1 111 34
197 99 264 61 61 121 87 211 87 90 1 118 -9 230 -84 187 -125 357 -157 564
-108 149 35 299 139 386 267 19 28 38 51 41 51 3 0 17 -13 30 -28z m-834
-2282 c192 -56 404 -48 581 20 l72 28 1 -37 c6 -174 -29 -275 -125 -364 -172
-160 -449 -133 -583 56 -58 82 -79 170 -74 314 l1 32 44 -19 c25 -10 62 -24
83 -30z"/>
<path d="M4075 5109 c-70 -35 -66 -150 6 -179 16 -7 110 -12 235 -13 l209 -2
0 -212 c1 -228 4 -247 53 -275 42 -24 104 -10 129 29 16 24 18 58 19 311 l1
285 -27 31 -28 31 -289 2 c-180 1 -296 -2 -308 -8z"/>
<path d="M455 2361 c-11 -5 -29 -19 -40 -31 -19 -21 -20 -37 -21 -304 -1 -221
2 -287 13 -308 26 -53 43 -56 350 -54 l281 1 26 24 c34 32 42 80 22 119 -27
53 -42 56 -276 57 l-215 0 -1 215 c0 233 -3 249 -54 275 -32 16 -55 18 -85 6z"/>
<path d="M4573 2351 c-17 -11 -35 -30 -39 -43 -4 -13 -8 -117 -8 -233 l-1
-210 -216 0 c-239 0 -254 -4 -279 -65 -17 -41 -3 -86 33 -114 27 -20 40 -21
295 -22 147 0 282 3 300 8 64 18 67 30 68 340 1 254 0 280 -17 308 -31 51 -83
63 -136 31z"/>
<path d="M2504 182 c-60 -51 -57 -128 6 -165 35 -21 62 -21 99 -2 54 27 66
119 21 160 -28 26 -100 30 -126 7z"/>
</g>
</svg>
